<svg xmlns="http://www.w3.org/2000/svg" viewBox="0 0 340.2 68"><defs><style>.cls-1{fill:#fff}</style></defs><g id="Logo"><path d="M8.3 51.2h7.6V37.1h14v-6.8h-14v-6.7h14.6v-6.7H8.3v34.3zM44.9 16.9h-7.6v34.3h21.3v-6.9H44.9V16.9zM63.9 16.9h7.6v34.3h-7.6zM99 33.9c-1.1 3.7-1.9 8.3-1.9 8.3s-.8-4.6-1.8-8.3l-4.4-17H79.6v34.3h7.3V40c0-4.6-.4-14.8-.5-16.7.1.4 1.1 4.8 1.8 7.8l5 20.1h7.3l5.5-19.1c1-3.3 2-8.3 2.1-8.7-.2 2.1-.7 11.8-.7 16.7v11.1h7.3V16.9h-10.9l-4.7 17ZM138.8 30.9l-5.5-1.1c-3.1-.6-4.7-1.5-4.7-3.7s2.2-3.5 5.4-3.5 6.5 1.5 8.9 3.7l4.8-4.6c-2.9-3.1-7.8-5.4-13.8-5.4s-13.2 4.3-13.2 10.4 4.7 9 11 10.2l4.4.9c3.1.6 5.1 1.2 5.1 3.6s-2.3 4.1-6.3 4.1-8.3-2.5-10.4-5.3l-5.3 4.5c2.1 2.9 7.6 7.2 15.5 7.2s14.4-3.9 14.4-11-4-8.6-10.3-9.8ZM208.8 16.9h-7.6v34.3h21.3v-6.9h-13.7V16.9zM237.8 16.9l-11.5 34.3h8l2-6.8h12l2 6.8h8.2l-11.4-34.3h-9.2Zm.3 21.2 2.9-9.6c.7-2.2 1.3-4.5 1.3-4.5s.6 2.3 1.2 4.4l2.8 9.7h-8.2ZM273.9 16.9l-11.5 34.3h8l2-6.8h12l2 6.8h8.2l-11.4-34.3H274Zm.3 21.2 2.9-9.6c.7-2.2 1.3-4.5 1.3-4.5s.6 2.3 1.2 4.4l2.8 9.7h-8.2ZM318.8 32.9l11.9-16h-9.3l-6.8 10.4-7.1-10.4H298l11.7 16.4-12.9 17.9h8.8l8.5-12.5 8.3 12.5h9.5l-13.1-18.3zM161.3 9.7H151l35.7 48.7H197L161.3 9.7zM196.9 9.7h-10.3l-11.7 16 5.1 7 16.9-23zM167.9 35.3l-17 23.1h10.3L173 42.3l-5.1-7z" class="cls-1"/></g></svg>