<svg xmlns="http://www.w3.org/2000/svg" xmlns:xlink="http://www.w3.org/1999/xlink" width="54.5" height="52.936" viewBox="0 0 54.5 52.936"><defs><style>.a,.c{fill:none;stroke:#068c66;}.b{clip-path:url(#a);}.c{stroke-linecap:round;stroke-linejoin:round;stroke-width:0.9px;}</style><clipPath id="a"><rect class="a" width="54.5" height="52.936"/></clipPath></defs><g transform="translate(0 0)"><g class="b" transform="translate(0 0)"><line class="c" y2="25.631" transform="translate(51.439 26.727)"/><path class="c" d="M21.868,21.616c-.978.707-3.047,2.653-2.388,4.125.577,1.3,3.032,1.708,4.7.81,1.408-.761,2.493-2.59,1.928-4.085a2.632,2.632,0,0,0-1.982-1.651A3.06,3.06,0,0,0,21.868,21.616Z" transform="translate(5.524 5.935)"/><path class="c" d="M21.848,35.259c-.954.689-2.969,2.586-2.328,4.021.563,1.262,2.957,1.666,4.579.789,1.372-.742,2.428-2.525,1.878-3.982a2.563,2.563,0,0,0-1.931-1.608A2.987,2.987,0,0,0,21.848,35.259Z" transform="translate(5.537 9.836)"/><path class="c" d="M20.5,29.525c-1.008,1.478-.991,3.246.039,3.948.842.575,2.256-.419,3.689-1.405.983-.677,1.585-1.106,1.648-1.809a2.421,2.421,0,0,0-1.687-2.14A3.335,3.335,0,0,0,20.5,29.525Z" transform="translate(5.638 7.983)"/><path class="c" d="M15.972,9.611c-1.257-.172-3.013-.3-4.269-.476A50.109,50.109,0,0,0,4.89,8.671c-.614,0-1.557.873-1.976,1.976-.891,2.343,1.744,4.948,6.522,11.245,1.039,1.369,1.959,2.624,2.746,3.718a16.142,16.142,0,0,1,2.58,5.611c.134.553.244,1.054.336,1.494a61.642,61.642,0,0,1,1.121,10.851c.026.756.01,4.342-.477,5.317" transform="translate(0.783 2.475)"/><path class="c" d="M16.169,3.232H3.638A3.278,3.278,0,0,0,.45,6.595V22.442A3.278,3.278,0,0,0,3.638,25.8H9.212" transform="translate(0.128 0.923)"/><path class="c" d="M30.825,3.232h11.11a3.278,3.278,0,0,1,3.187,3.363V22.442A3.278,3.278,0,0,1,41.935,25.8H37.419" transform="translate(8.8 0.923)"/><line class="c" y2="25.631" transform="translate(3.766 26.727)"/><path class="c" d="M21.755,18.135a5.464,5.464,0,0,1,.012.976,2.753,2.753,0,0,1-.249,1.207,1.357,1.357,0,0,1-1.014.508,3.316,3.316,0,0,1-2.606-.837,66.338,66.338,0,0,0-8.911-6.831" transform="translate(2.565 3.756)"/><path class="c" d="M14.368,4.648a13.809,13.809,0,0,0-.108,4.007c.382,1.779.823,2.185.783,3.234A4.6,4.6,0,0,1,13.9,14.4a.336.336,0,0,0,.161.523,8.311,8.311,0,0,0,.892.256.369.369,0,0,1,.293.4l-.107,1.053a.569.569,0,0,0,.257.519l.482.312-.147.427a.566.566,0,0,0,.044.463l.1.176a3.538,3.538,0,0,1,.212,1.193,1.727,1.727,0,0,0,.383.846c.285.318.779.243,1.057.22.848-.072,1.813-.136,2.954-.213" transform="translate(3.948 1.327)"/><line class="c" y1="0.069" x2="0.46" transform="translate(19.827 18.718)"/><path class="c" d="M22.1,1.217a6.514,6.514,0,0,1,6.6.288c2.833,1.72,4.623,5.914,1.6,8.39a4.9,4.9,0,0,1-.409.3" transform="translate(6.309 0.128)"/><path class="c" d="M24.4,20.961a1.69,1.69,0,0,0,.942-.722,1.882,1.882,0,0,0-.027-1.748c-.425-.8-1.212-.789-1.831-1.22-1.789-1.244.222-4.468-1.293-6.633-1.449-2.072-4.851-1.352-7.077-3.624A2.517,2.517,0,0,1,14.2,5.069a2.03,2.03,0,0,1,.506-.89,8.041,8.041,0,0,1,4.642-3.021,7.908,7.908,0,0,1,5.1.243,7.667,7.667,0,0,1,3.2,2.508l.136.138c1.062,1.072,6.287,6.57,4.572,10.66a7.469,7.469,0,0,1-2.311,2.837,25.39,25.39,0,0,1-2.278,1.149c-.15.063-.5.243-.789.383" transform="translate(4.05 0.241)"/><line class="c" y1="1.058" x2="2.773" transform="translate(13.525 17.123)"/><path class="c" d="M29.8,9.662c1.257-.172,3.3-.387,4.561-.559a50.11,50.11,0,0,1,6.813-.465c.614,0,1.557.873,1.976,1.976.891,2.343-1.744,4.948-6.522,11.245-1.039,1.37-1.959,2.624-2.746,3.719a16.113,16.113,0,0,0-2.58,5.61c-.134.554-.244,1.054-.336,1.495a61.617,61.617,0,0,0-1.121,10.849,17.247,17.247,0,0,0,.4,5.359" transform="translate(8.507 2.465)"/><path class="c" d="M24.142,15.571v.452a3.3,3.3,0,0,0,1.453,2.784,3.518,3.518,0,0,0,.419.23,3.46,3.46,0,0,0,1.5.289c1.8-.03,3.1-1.282,4.746-2.663,1.062-.89,2.615-2.131,4.652-3.538" transform="translate(6.892 3.747)"/><line class="c" x1="4.412" y1="1.473" transform="translate(37.418 16.665)"/></g></g></svg>