<svg xmlns="http://www.w3.org/2000/svg" xmlns:xlink="http://www.w3.org/1999/xlink" width="67.267" height="48.388" viewBox="0 0 67.267 48.388"><defs><style>.a,.c,.d{fill:none;stroke:#068c66;}.b{clip-path:url(#a);}.c,.d{stroke-linecap:round;stroke-linejoin:round;}.c{stroke-width:0.9px;}.d{stroke-width:0.702px;}</style><clipPath id="a"><rect class="a" width="67.267" height="48.388"/></clipPath></defs><g transform="translate(0 0)"><g class="b" transform="translate(0 0.001)"><path class="c" d="M23.41,32.52h0a18.139,18.139,0,0,1-4.226-2.2,17.868,17.868,0,0,1-4.734-4.906,22.248,22.248,0,0,1-3.429-10.7,21.128,21.128,0,0,1,11.293,3.783s-1.351-4.077,2.294-8.819" transform="translate(2.28 2.001)"/><path class="c" d="M31.629,31.728h0a10.359,10.359,0,0,1-1.958,1.406,18.79,18.79,0,0,1-8.919,2.4,18.488,18.488,0,0,1-9.814-2.766,22.43,22.43,0,0,1-5.913-5.165c.412-.064,4.877-2.518,6.611-3.215A6.049,6.049,0,0,1,13.1,24.01a11.147,11.147,0,0,1-2.065-4.432" transform="translate(1.04 4.051)"/><path class="c" d="M33.829,21.026a15.449,15.449,0,0,1-.185,2.348,19.085,19.085,0,0,1-5.174,10.447v.013l-.418.467-.419-.467v-.013A19.249,19.249,0,0,1,22.46,23.373a19.322,19.322,0,0,1-.185-2.348,20.509,20.509,0,0,1,5.261-13.52l.517-.616.529.616A20.523,20.523,0,0,1,33.829,21.026Z" transform="translate(4.61 1.425)"/><path class="c" d="M33.048,32.52h0a18.139,18.139,0,0,0,4.226-2.2,17.891,17.891,0,0,0,4.735-4.906,22.255,22.255,0,0,0,3.428-10.7,21.128,21.128,0,0,0-11.293,3.783s1.351-4.077-2.293-8.819" transform="translate(6.592 2.001)"/><path class="c" d="M47.657,19.578a11.134,11.134,0,0,1-2.064,4.432,6.042,6.042,0,0,1,1.462.381c1.733.7,6.2,3.153,6.612,3.215a22.446,22.446,0,0,1-5.913,5.166,18.506,18.506,0,0,1-9.815,2.766,18.8,18.8,0,0,1-8.919-2.4,19.282,19.282,0,0,1-1.958-1.406" transform="translate(5.6 4.051)"/><path class="d" d="M2.663,19.925a.21.21,0,1,1-.249.162A.208.208,0,0,1,2.663,19.925Z" transform="translate(0.499 4.122)"/><path class="d" d="M3.221,17.859a.209.209,0,0,1,.136.262.212.212,0,0,1-.263.138A.206.206,0,0,1,2.957,18,.211.211,0,0,1,3.221,17.859Z" transform="translate(0.61 3.693)"/><path class="d" d="M3.952,15.847a.206.206,0,0,1,.112.272.217.217,0,0,1-.278.113.2.2,0,0,1-.111-.272A.212.212,0,0,1,3.952,15.847Z" transform="translate(0.757 3.276)"/><path class="d" d="M4.854,13.9a.2.2,0,0,1,.086.279.217.217,0,0,1-.287.089.2.2,0,0,1-.086-.279A.216.216,0,0,1,4.854,13.9Z" transform="translate(0.94 2.872)"/><path class="d" d="M5.917,12.045a.2.2,0,0,1,.06.285.221.221,0,0,1-.3.062.2.2,0,0,1-.06-.284A.219.219,0,0,1,5.917,12.045Z" transform="translate(1.156 2.485)"/><path class="d" d="M7.134,10.283a.2.2,0,0,1,.036.288.2.2,0,0,1-.286.048.22.22,0,0,1-.049-.3A.215.215,0,0,1,7.134,10.283Z" transform="translate(1.407 2.118)"/><path class="d" d="M8.5,8.634a.222.222,0,0,1,.023.3.2.2,0,0,1-.291.022.218.218,0,0,1-.022-.3A.2.2,0,0,1,8.5,8.634Z" transform="translate(1.689 1.775)"/><path class="d" d="M10.017,7.118a.219.219,0,0,1,0,.3.2.2,0,0,1-.292,0,.214.214,0,0,1,0-.3A.2.2,0,0,1,10.017,7.118Z" transform="translate(1.999 1.459)"/><path class="d" d="M11.655,5.739a.216.216,0,0,1-.033.3.208.208,0,0,1-.292-.031.214.214,0,0,1,.033-.3A.2.2,0,0,1,11.655,5.739Z" transform="translate(2.335 1.171)"/><path class="d" d="M13.4,4.5a.213.213,0,0,1-.059.292.21.21,0,1,1-.231-.35A.207.207,0,0,1,13.4,4.5Z" transform="translate(2.695 0.912)"/><path class="d" d="M15.254,3.424a.21.21,0,0,1-.369.2.21.21,0,1,1,.369-.2Z" transform="translate(3.075 0.685)"/><path class="d" d="M17.187,2.507a.208.208,0,0,1-.111.273.215.215,0,0,1-.276-.112.2.2,0,0,1,.11-.273A.213.213,0,0,1,17.187,2.507Z" transform="translate(3.473 0.492)"/><path class="d" d="M19.193,1.757a.2.2,0,0,1-.135.259.218.218,0,0,1-.267-.139.2.2,0,0,1,.135-.259A.216.216,0,0,1,19.193,1.757Z" transform="translate(3.887 0.332)"/><path class="d" d="M21.256,1.18a.2.2,0,0,1-.158.244.222.222,0,0,1-.255-.164A.2.2,0,0,1,21,1.016.223.223,0,0,1,21.256,1.18Z" transform="translate(4.312 0.209)"/><path class="d" d="M23.358.771a.222.222,0,0,1-.175.247.2.2,0,0,1-.237-.168A.22.22,0,0,1,23.121.6.2.2,0,0,1,23.358.771Z" transform="translate(4.748 0.124)"/><path class="d" d="M25.493.579a.218.218,0,0,1-.2.228.2.2,0,0,1-.222-.191.216.216,0,0,1,.2-.228A.2.2,0,0,1,25.493.579Z" transform="translate(5.189 0.08)"/><path class="d" d="M27.635.562a.217.217,0,0,1-.216.208.209.209,0,0,1-.205-.211.213.213,0,0,1,.215-.208A.207.207,0,0,1,27.635.562Z" transform="translate(5.632 0.072)"/><path class="d" d="M29.769.727a.21.21,0,1,1-.418-.046.21.21,0,1,1,.418.046Z" transform="translate(6.074 0.102)"/><path class="d" d="M31.881,1.071a.208.208,0,0,1-.246.162.213.213,0,0,1-.164-.249.2.2,0,0,1,.246-.162A.21.21,0,0,1,31.881,1.071Z" transform="translate(6.512 0.169)"/><path class="d" d="M33.956,1.6a.2.2,0,0,1-.258.138.217.217,0,0,1-.141-.264.2.2,0,0,1,.258-.138A.214.214,0,0,1,33.956,1.6Z" transform="translate(6.943 0.273)"/><path class="d" d="M35.98,2.3a.2.2,0,0,1-.269.113.22.22,0,0,1-.116-.279.2.2,0,0,1,.268-.112A.216.216,0,0,1,35.98,2.3Z" transform="translate(7.364 0.414)"/><path class="d" d="M37.936,3.169a.2.2,0,0,1-.276.087.217.217,0,0,1-.094-.281.2.2,0,0,1,.279-.094A.219.219,0,0,1,37.936,3.169Z" transform="translate(7.77 0.59)"/><path class="d" d="M39.814,4.2a.22.22,0,0,1-.29.074.2.2,0,0,1-.075-.28.22.22,0,0,1,.292-.078A.2.2,0,0,1,39.814,4.2Z" transform="translate(8.158 0.804)"/><path class="d" d="M41.586,5.408a.222.222,0,0,1-.3.052.2.2,0,0,1-.051-.287.216.216,0,0,1,.3-.052A.2.2,0,0,1,41.586,5.408Z" transform="translate(8.526 1.051)"/><path class="d" d="M43.245,6.764a.217.217,0,0,1-.3.024.206.206,0,0,1-.024-.292.215.215,0,0,1,.3-.024A.2.2,0,0,1,43.245,6.764Z" transform="translate(8.873 1.328)"/><path class="d" d="M44.782,8.254a.216.216,0,0,1-.3,0,.207.207,0,0,1,0-.294.211.211,0,0,1,.3,0A.206.206,0,0,1,44.782,8.254Z" transform="translate(9.194 1.634)"/><path class="d" d="M46.186,9.871a.21.21,0,1,1,.03-.294A.208.208,0,0,1,46.186,9.871Z" transform="translate(9.488 1.965)"/><path class="d" d="M47.446,11.6a.209.209,0,0,1-.29-.057.213.213,0,0,1,.057-.292.207.207,0,0,1,.29.057A.21.21,0,0,1,47.446,11.6Z" transform="translate(9.752 2.321)"/><path class="d" d="M48.554,13.433a.208.208,0,0,1-.282-.082.215.215,0,0,1,.084-.287.2.2,0,0,1,.282.082A.214.214,0,0,1,48.554,13.433Z" transform="translate(9.985 2.697)"/><path class="d" d="M49.5,15.353a.2.2,0,0,1-.272-.107.22.22,0,0,1,.111-.28.2.2,0,0,1,.272.107A.216.216,0,0,1,49.5,15.353Z" transform="translate(10.185 3.093)"/><path class="d" d="M50.283,17.347a.2.2,0,0,1-.258-.132.222.222,0,0,1,.138-.27.2.2,0,0,1,.258.133A.219.219,0,0,1,50.283,17.347Z" transform="translate(10.351 3.504)"/><path class="d" d="M50.9,19.4a.222.222,0,0,1-.259-.15A.2.2,0,0,1,50.781,19a.221.221,0,0,1,.263.15A.2.2,0,0,1,50.9,19.4Z" transform="translate(10.478 3.929)"/><path class="d" d="M51.3,21.5a.219.219,0,0,1-.247-.171.2.2,0,0,1,.168-.24.215.215,0,0,1,.246.171A.2.2,0,0,1,51.3,21.5Z" transform="translate(10.566 4.364)"/><path class="c" d="M49.428,33.931c.019,1.078-8.481,2.1-18.987,2.293s-19.037-.531-19.057-1.61" transform="translate(2.356 7.022)"/><path class="c" d="M58.093,34.537c5.294.507,8.522,1.246,8.538,2.119.034,1.874-14.754,3.661-33.03,3.99S.484,39.721.45,37.845c-.016-.871,3.166-1.722,8.408-2.418" transform="translate(0.093 7.147)"/><line class="c" x2="1.335" y2="0.497" transform="translate(14.138 28.06)"/><line class="c" x2="0.56" y2="0.768" transform="translate(24.592 20.492)"/><line class="c" x1="0.645" y2="0.768" transform="translate(40.094 20.492)"/><line class="c" x1="1.227" y2="0.249" transform="translate(49.965 28.06)"/></g></g></svg>