<svg xmlns="http://www.w3.org/2000/svg" xmlns:xlink="http://www.w3.org/1999/xlink" width="56.768" height="46.449" viewBox="0 0 56.768 46.449"><defs><style>.a,.c,.d{fill:none;stroke:#068c66;}.b{clip-path:url(#a);}.c,.d{stroke-linecap:round;stroke-linejoin:round;}.c{stroke-width:0.9px;}.d{stroke-width:0.693px;}</style><clipPath id="a"><rect class="a" width="56.768" height="46.449"/></clipPath></defs><g transform="translate(0 0)"><g class="b" transform="translate(0 0)"><path class="c" d="M12.088,30.231,9.664,25.66,3.781,18.042A3.617,3.617,0,0,1,8.524,17.5c2.451,1.723,7.909,6.943,7.909,6.943a12.72,12.72,0,0,1,2.133.49,14.932,14.932,0,0,1,8.877,8.784c.11.291.207.587.291.886a10.781,10.781,0,0,1,.339,2.991l-.022,4.713" transform="translate(0.807 3.596)"/><path class="c" d="M17.556,44.888a16.682,16.682,0,0,0-2.014-2.173c-2.331-2.107-4.636-4.253-6.836-6.492L3.446,30.871a6.972,6.972,0,0,1-1.921-3.788,71.88,71.88,0,0,1-1.074-8.8L1.962,5c.013-.318.331-.291.728-.146A3.621,3.621,0,0,1,4.572,6.572c.6,1.127.066,3.247.013,4.877l.437,6.412" transform="translate(0.096 1.013)"/><path class="c" d="M7.326,16.584l-.244-3.589c.047-1.749.166-4.048.227-5.9A3.476,3.476,0,0,0,7.1,5.774c-.05-.137-.1-.28-.158-.419A2.748,2.748,0,0,0,5.5,3.812c-.059-.025-.116-.049-.174-.07a.82.82,0,0,0-1.12.74L3.852,6.8" transform="translate(0.822 0.786)"/><path class="c" d="M6.7,6.513S10.63,4.9,9.878,13.6l.62,3.326" transform="translate(1.43 1.365)"/><path class="c" d="M9.446,9.172a1.543,1.543,0,0,1,1.155-.4,1.631,1.631,0,0,1,1.341,1.445v.018a14.476,14.476,0,0,0,.406,3.575l.586,2.418" transform="translate(2.016 1.87)"/><path class="c" d="M23.393,34.095c.042-.127.087-.254.136-.38a14.942,14.942,0,0,1,8.876-8.784,12.967,12.967,0,0,1,2.133-.49S40,19.221,42.447,17.5a3.615,3.615,0,0,1,4.743.544L41.308,25.66l-2.424,4.571" transform="translate(4.993 3.596)"/><path class="c" d="M32.235,44.888a15.892,15.892,0,0,1,2.028-2.173c2.318-2.107,4.623-4.253,6.835-6.492l5.247-5.352a6.991,6.991,0,0,0,1.934-3.788,71.568,71.568,0,0,0,1.061-8.8L47.829,5c-.013-.318-.331-.291-.716-.146a3.65,3.65,0,0,0-1.894,1.722c-.582,1.127-.066,3.247,0,4.877l-.45,6.412" transform="translate(6.88 1.013)"/><path class="c" d="M40.072,16.584l.244-3.589c-.047-1.749-.166-4.048-.227-5.9A3.476,3.476,0,0,1,40.3,5.774c.05-.137.1-.28.158-.419a2.748,2.748,0,0,1,1.435-1.543c.058-.025.116-.049.174-.07a.82.82,0,0,1,1.12.74L43.546,6.8" transform="translate(8.552 0.786)"/><path class="c" d="M40.754,6.513S36.825,4.9,37.577,13.6l-.62,3.326" transform="translate(7.887 1.365)"/><path class="c" d="M37.955,9.172a1.543,1.543,0,0,0-1.155-.4,1.631,1.631,0,0,0-1.341,1.445v.018a14.476,14.476,0,0,1-.406,3.575l-.586,2.418" transform="translate(7.356 1.87)"/><path class="d" d="M11.637,5.707a.237.237,0,0,1,.016.339.258.258,0,0,1-.351.016.231.231,0,0,1-.015-.339A.25.25,0,0,1,11.637,5.707Z" transform="translate(2.395 1.204)"/><path class="d" d="M13.431,4.006a.256.256,0,0,1-.028.348.238.238,0,0,1-.339-.028.249.249,0,0,1,.028-.348A.233.233,0,0,1,13.431,4.006Z" transform="translate(2.776 0.836)"/><path class="d" d="M15.485,2.626a.242.242,0,0,1-.087.331.25.25,0,0,1-.335-.087.24.24,0,0,1,.087-.332A.245.245,0,0,1,15.485,2.626Z" transform="translate(3.207 0.534)"/><path class="d" d="M17.719,1.569a.244.244,0,0,1-.453.18.244.244,0,1,1,.453-.18Z" transform="translate(3.681 0.3)"/><path class="d" d="M20.1.893A.244.244,0,0,1,19.623,1a.244.244,0,0,1,.186-.292A.239.239,0,0,1,20.1.893Z" transform="translate(4.187 0.149)"/><path class="d" d="M22.551.585a.233.233,0,0,1-.229.248A.256.256,0,0,1,22.064.6a.23.23,0,0,1,.228-.255A.252.252,0,0,1,22.551.585Z" transform="translate(4.709 0.074)"/><path class="d" d="M25.024.665a.253.253,0,0,1-.267.223.242.242,0,0,1-.218-.262A.246.246,0,0,1,24.805.4.236.236,0,0,1,25.024.665Z" transform="translate(5.237 0.086)"/><path class="d" d="M27.448,1.146a.24.24,0,0,1-.3.169.252.252,0,0,1-.172-.3.234.234,0,0,1,.3-.169A.247.247,0,0,1,27.448,1.146Z" transform="translate(5.756 0.178)"/><path class="d" d="M29.778,1.978a.258.258,0,0,1-.323.129.236.236,0,0,1-.129-.313.253.253,0,0,1,.325-.133A.232.232,0,0,1,29.778,1.978Z" transform="translate(6.255 0.35)"/><path class="d" d="M31.933,3.193a.248.248,0,0,1-.337.074.244.244,0,0,1,.263-.41A.241.241,0,0,1,31.933,3.193Z" transform="translate(6.72 0.601)"/><path class="d" d="M33.879,4.716a.237.237,0,0,1-.339.015.255.255,0,0,1-.016-.349.232.232,0,0,1,.339-.015A.25.25,0,0,1,33.879,4.716Z" transform="translate(7.142 0.917)"/><path class="d" d="M35.579,6.514a.254.254,0,0,1-.348-.029.237.237,0,0,1,.028-.339.251.251,0,0,1,.348.029A.233.233,0,0,1,35.579,6.514Z" transform="translate(7.507 1.299)"/><path class="c" d="M29.015,15.321a8.31,8.31,0,0,0-3.321,3.146" transform="translate(5.484 3.269)"/><path class="c" d="M23.423,15.867c1.609-2.13,4.77-3.242,7.224-3.483,1.181-.114,2.958-.2,3.707.933.926,1.4-.456,3.291-1.075,4.554-1.061,2.168-2.683,5.2-5.594,4.408" transform="translate(4.999 2.629)"/><path class="c" d="M28.558,17.579a2.37,2.37,0,0,0-2.5.449,8.551,8.551,0,0,0-2,6.7" transform="translate(5.115 3.71)"/><path class="c" d="M18.267,17.1A6.389,6.389,0,0,1,21,19.309" transform="translate(3.899 3.649)"/><path class="c" d="M20.747,22.3c-2.182.779-3.605-1.445-4.547-3.042-.55-.931-1.721-2.3-1.1-3.423.507-.911,1.872-.954,2.785-.936,2.214.044,5.243.944,6.326,3.1a2.8,2.8,0,0,1,.22.586,2.107,2.107,0,0,1-.017,1.137" transform="translate(3.185 3.178)"/><path class="c" d="M18.918,18.761a4.433,4.433,0,0,1,3.827,1.594,3.765,3.765,0,0,1,.73,1.853" transform="translate(4.038 4)"/></g></g></svg>