<svg width="256" height="74" xmlns="http://www.w3.org/2000/svg"><g fill="none" fill-rule="evenodd"><path fill="#A1252D" d="M128 54.4h128V0H128z"></path><path fill="#FAD038" d="M0 54.4h128V0H0z"></path><path d="M182.73 24.375l3.89-8.732 3.842 8.732h-7.732zm-24.297 0l3.89-8.733 3.842 8.732h-7.732zm53.72-3.119l9.024-12.702-4.357-.006-6.913 9.875-7.028-9.875-4.645.006 9.454 12.714-8.937 12.6-12.115-27.07-12.173 27.088-12.124-27.089-11.433 25.44H139.97V8.554h-3.906V35.77l17.26-.001 3.565-7.944h10.744l3.55 7.944h6.437l3.565-7.944 10.745.002 3.55 7.943h6.173l8.255-11.396 8.726 11.396h4.81l-11.29-14.514zM43.29 7.411s-4.563 1.352-15.092 2.45c0 0-10.46 1.026-12.66 1.7-2.202.675-5.04 1.019-6.53 3.373-1.49 2.356 1.763 4.292 2.695 4.59.934.297 2.168.667 4.11.59 0 0 .785.086.142-.558-.646-.642-.606-1.232-.125-1.73.486-.496.872-.954 4.638-2.166 3.773-1.215 14.915-2.678 14.915-2.678s12.93-2.38 14.856-3.193c0 0 2.01-.77 2.55-1.22.54-.452-.193-.316-.344-.316-.15 0-2.555.273-5.924-1.57 0 0-.286-.254-.887-.042-.602.211-1.606.528-2.344.77" fill="#FFFFFE"></path><path d="M21.897 17.827s-.165.301.3.285c.465-.015 1.683-.063 1.73 1.048.046 1.115-.52 2.345-1.377 4.466-.851 2.121-1.78 4.09-1.78 4.09s-.478 1.354-1.622 1.61c-1.141.26-3.213.636-4.161-.293 0 0-.286-.344-.166-1.174 0 0-.001-.583-.512-.402-.511.18-1.366.557-2.928 2.332-1.559 1.776-.703 2.63-.492 2.78.211.152.875.856 5.425.189 0 0 1.64-.378 2.088-.232 0 0 .392.062-.176 1.098-.572 1.04-3.386 6.316-3.868 6.92-.479.6-1.456 1.533-2.266 1.463-.81-.077-1.144-.948-1.174-1.083 0 0-.12-.406-.134-.84-.017-.437-.273-.722-.603-.194-.33.525-1.53 2.315-1.002 4.238.531 1.922 2.967 2.593 4.275 2.427 1.305-.167 3.723-.473 7.124-6.277 3.403-5.806 5.47-9.775 5.47-9.775s.345-.873.93-1.142c.588-.273 4.159-1.977 4.234-2.039.074-.059 1.544-.75.074-.915l-.678-.074s-.136 0-.66.169c-.525.163-1.5.42-1.62.42-.123 0-.529.046-.258-.524.27-.573 2.876-5.804 3.326-6.918.448-1.111.883-2.21.94-3.308 0 0 .15-.887-1.217-.63-1.366.26-8.426 1.953-8.426 1.953s-.557.106-.796.332" fill="#FFFFFE"></path><path d="M38.494 26.735l2.681-5.02s2.297-4.313 3.768-5.277c0 0 .523-.427.749-.344.18.068.133.51.021.831-.114.32-.42 1.774-2.63 4.93-1.27 1.814-2.14 2.736-2.14 2.736l-2.093 2.393s-.28.311-.398.194c-.118-.117-.088-.193.042-.443zm55.273-7.193c-.606.295-3.995 2.354-3.995 2.354s-1.046.635-1.43.192c-.386-.441-.018-1.092.115-1.4.134-.312 3.073-6.913 3.073-6.913s.749-1.58-.772-2.313c0 0-1.67-.825-2.95.52l-7.13 8.318-2.088 2.393s-.282.311-.398.193c-.12-.118-.088-.192.044-.442.133-.252 2.676-5.022 2.676-5.022s.955-2.067-.476-3.141c0 0-1.626-1.09-3.128.403l-7.716 8.408-.012.01-2.091 2.395s-.28.31-.398.193c-.119-.12-.09-.193.043-.445.131-.248 2.677-5.018 2.677-5.018s1.657-2.336-.285-3.393c0 0-1.803-.965-3.727 1.064l-7.206 7.997s-3.333 3.742-4.415 4.556c-1.08.814-1.511.814-1.826.432 0 0-.317-.025.47-1.533.79-1.514 3.02-5.785 3.89-7.13.526-.819.456-.92 1.257-1.985 0 0 .36-.469.258-.764-.1-.297-.786-.104-.786-.104s-3.176.968-4.043 1.091c-.868.124-1.196.236-1.957 1.495-.766 1.258-1.59 2.872-3.865 5.624 0 0-3.372 4.212-5.89 6.064 0 0-2.715 1.933-3.746 2.212-1.031.277-1.816.064-1.982-.755 0 0-.279-1.64.445-3.145 0 0 .172-.336.508-.663 0 0 4.361-4.099 5.264-5.094.926-1.024 2.892-3.216 3.972-4.898 1.54-2.396 1.936-3.935 1.936-3.935.658-2.596-1.924-2.834-1.924-2.834s-3.291-.46-7.283 3.332c-3.992 3.791-6.565 11.309-6.565 11.309s-.807 2.164-1.42 5.427c0 0-.013.33-.689.872-.674.543-5.16 4.155-7.353 5.751l-1.455.995s-.39.243-.285.406c.106.165.226.09.497 0 .27-.091 4.533-2.54 6.708-4.204 1.966-1.506 2.057-1.46 2.057-1.46s.39-.227.494.226c.107.449.577 2.343 2.44 2.503 1.864.164 3.891-.501 7.344-3.257 0 0 3.569-2.92 5.13-5.193 0 0 1.395-1.653 1.561-1.82.165-.165.358-.375.48-.285.12.09.03.329-.12.662-.151.33-1.664 2.781-1.497 3.939.168 1.156 1.117 2.642 3.144 2.25 2.028-.396 6.425-4.73 6.425-4.73l5.008-5.76.797-.89s.253-.24.42-.077c0 0 .255.107-.03.647-.284.541-1.978 3.656-2.293 4.3-.315.649-1.214 2.873.804 3.74 0 0 1.594.721 3.738-1.627 2.317-2.535 5.835-6.92 5.835-6.92l2.099-2.545s.27-.331.436-.164c0 0 .254.102-.029.645-.287.541-1.666 3.459-1.98 4.106-.312.645-1.211 2.873.803 3.74 0 0 1.596.718 3.74-1.628 2.315-2.537 6.21-7.286 6.21-7.286l1.795-2.161s.216-.275.404-.137c0 0 .268.065.067.645-.204.576-.886 2.652-1.102 3.335-.218.688-.915 2.919 1.1 3.785 0 0 1.82.704 4.305-1.28 2.682-2.14 6.29-5.902 6.29-5.902s.183-.573-.422-.276z" fill="#FFFFFE"></path><path d="M60.668 13.8c.57.95-.227 2.475-1.777 3.406-1.55.933-3.272.918-3.843-.03-.57-.951.226-2.479 1.777-3.41 1.55-.931 3.272-.917 3.843.034m43.268-6.376s-4.322 1.164-6.778 3.826c-2.38 2.58-.54 4.62-.525 4.633 0 0 1.457 1.381 2.93 2.504 0 0 1.237 1.123.379 2.373-.858 1.25-1.678 1.6-2.787 1.449 0 0-.877-.302-.783-1.165 0 0 .196-.653.195-.819 0-.167-.054-.446-.542-.36-.486.084-1.708.654-3.052 2.559 0 0-1.177 1.975 1.31 2.414 2.487.44 6.607-1.731 6.607-1.731s4.775-2.313 4.547-5.201c-.227-2.89-1.936-2.678-3.367-4.302 0 0-1.598-1.705-.144-3.153 0 0 .96-.916 1.859-.738 0 0 .737.164.49.998-.251.835-.07.901.388.723.459-.183 2.22-1.311 2.58-2.255 0 0 .44-1.151-.724-1.624-1.169-.47-2.5-.128-2.583-.131" fill="#FFFFFE"></path><path d="M37.465 26.472l2.678-5.02s2.3-4.313 3.77-5.277c0 0 .523-.427.75-.344.177.069.131.51.019.83-.114.32-.42 1.774-2.628 4.932-1.271 1.812-2.142 2.735-2.142 2.735l-2.09 2.393s-.28.31-.4.194c-.117-.12-.089-.192.043-.443zm55.27-7.192c-.603.294-3.992 2.352-3.992 2.352s-1.047.635-1.432.193c-.386-.441-.018-1.093.113-1.4.135-.311 3.075-6.911 3.075-6.911s.749-1.58-.771-2.317c0 0-1.67-.824-2.948.522l-7.13 8.319-2.09 2.39s-.281.314-.398.196c-.119-.12-.089-.195.044-.444.132-.25 2.676-5.021 2.676-5.021s.956-2.067-.477-3.142c0 0-1.625-1.089-3.128.404l-7.715 8.408-.012.01-2.091 2.394s-.281.31-.398.194c-.119-.119-.09-.194.041-.443l2.679-5.02s1.657-2.336-.284-3.392c0 0-1.804-.966-3.727 1.063l-7.208 7.996s-3.334 3.742-4.416 4.558c-1.08.812-1.51.813-1.828.43 0 0-.31-.025.476-1.532.785-1.512 3.017-5.786 3.887-7.13.526-.818.456-.92 1.26-1.985 0 0 .358-.47.255-.763-.1-.299-.784-.104-.784-.104s-3.177.966-4.044 1.09c-.87.124-1.195.237-1.959 1.495-.764 1.257-1.587 2.871-3.861 5.624 0 0-3.376 4.211-5.893 6.064 0 0-2.714 1.935-3.745 2.211-1.032.278-1.82.065-1.985-.753 0 0-.276-1.642.448-3.145 0 0 .171-.338.51-.664 0 0 4.358-4.099 5.26-5.094.927-1.024 2.894-3.216 3.974-4.897 1.538-2.395 1.935-3.936 1.935-3.936.66-2.596-1.925-2.834-1.925-2.834s-3.29-.461-7.282 3.331c-3.988 3.792-6.563 11.308-6.563 11.308s-.81 2.167-1.42 5.428c0 0-.012.33-.691.872-.673.544-5.16 4.155-7.353 5.752l-1.455.995s-.391.243-.285.406c.106.164.227.09.496-.002.271-.09 4.538-2.536 6.71-4.202 1.967-1.506 2.056-1.462 2.056-1.462s.392-.225.496.227c.105.449.576 2.342 2.437 2.506 1.864.162 3.895-.504 7.346-3.26 0 0 3.57-2.918 5.128-5.19 0 0 1.398-1.655 1.56-1.822.167-.165.362-.375.483-.285.12.09.031.329-.12.662-.152.329-1.664 2.78-1.496 3.938.166 1.158 1.115 2.643 3.142 2.25 2.028-.394 6.425-4.73 6.425-4.73l5.01-5.76.794-.89s.256-.24.42-.076c0 0 .256.106-.03.647-.283.543-1.974 3.655-2.29 4.3-.315.648-1.215 2.872.802 3.74 0 0 1.593.721 3.738-1.628 2.316-2.536 5.836-6.92 5.836-6.92l2.098-2.544s.27-.331.436-.163c0 0 .254.102-.03.643-.285.543-1.663 3.46-1.974 4.105-.317.65-1.216 2.872.802 3.741 0 0 1.593.72 3.738-1.627 2.313-2.537 6.21-7.284 6.21-7.284l1.792-2.163s.22-.275.406-.137c0 0 .269.066.066.643-.202.577-.887 2.654-1.1 3.338-.217.688-.916 2.918 1.097 3.786 0 0 1.82.702 4.305-1.281 2.685-2.142 6.291-5.903 6.291-5.903s.183-.573-.423-.275z" fill="#0A0D0D"></path><path d="M20.868 17.564s-.167.301.299.286c.464-.016 1.682-.065 1.73 1.048.047 1.112-.521 2.344-1.377 4.464-.852 2.12-1.78 4.092-1.78 4.092s-.478 1.352-1.621 1.607c-1.143.26-3.213.638-4.161-.292 0 0-.288-.344-.169-1.172 0 0 0-.586-.51-.405-.512.182-1.365.558-2.928 2.333-1.56 1.779-.701 2.632-.492 2.782.211.151.874.855 5.424.187 0 0 1.64-.378 2.091-.229 0 0 .39.06-.178 1.097-.571 1.04-3.387 6.315-3.869 6.919-.479.6-1.454 1.535-2.265 1.462-.812-.076-1.142-.946-1.172-1.083 0 0-.122-.407-.138-.84-.017-.437-.27-.72-.602-.194-.33.528-1.528 2.316-1 4.237.529 1.924 2.965 2.597 4.272 2.429 1.305-.167 3.725-.472 7.126-6.277 3.403-5.806 5.47-9.774 5.47-9.774s.344-.874.93-1.145c.587-.272 4.158-1.975 4.235-2.038.072-.058 1.546-.751.072-.913l-.675-.075s-.134 0-.662.167c-.525.165-1.502.422-1.621.423-.123 0-.526.045-.255-.525.267-.575 2.872-5.805 3.323-6.92.45-1.11.884-2.21.94-3.306 0 0 .148-.886-1.217-.628-1.367.257-8.424 1.952-8.424 1.952s-.559.107-.796.33m38.77-4.027c.569.95-.226 2.475-1.776 3.408-1.552.933-3.271.916-3.843-.032-.571-.95.225-2.479 1.776-3.408 1.55-.933 3.272-.918 3.843.032" fill="#0A0D0D"></path><path d="M42.26 7.148S37.698 8.5 27.168 9.598c0 0-10.458 1.025-12.66 1.7-2.204.676-5.04 1.018-6.531 3.372-1.49 2.357 1.762 4.292 2.695 4.592.936.295 2.169.666 4.11.59 0 0 .787.085.143-.558-.645-.643-.607-1.234-.126-1.732.484-.496.87-.953 4.64-2.165 3.77-1.215 14.912-2.678 14.912-2.678s12.933-2.378 14.856-3.193c0 0 2.012-.77 2.554-1.22.539-.453-.196-.316-.346-.316-.151 0-2.553.274-5.924-1.57 0 0-.288-.253-.887-.042-.601.21-1.605.528-2.344.77m60.646.013s-4.321 1.164-6.775 3.825c-2.383 2.582-.543 4.62-.531 4.633 0 0 1.459 1.382 2.932 2.505 0 0 1.239 1.122.38 2.373-.858 1.251-1.678 1.6-2.788 1.449 0 0-.877-.303-.78-1.165 0 0 .195-.654.193-.82.002-.167-.055-.444-.541-.36-.485.085-1.71.653-3.054 2.56 0 0-1.177 1.974 1.311 2.414 2.487.44 6.608-1.732 6.608-1.732s4.771-2.312 4.547-5.2c-.229-2.89-1.935-2.679-3.37-4.302 0 0-1.597-1.706-.14-3.152 0 0 .954-.917 1.858-.738 0 0 .736.162.487.997-.251.835-.065.903.392.723.455-.183 2.218-1.312 2.58-2.255 0 0 .438-1.153-.725-1.624-1.17-.47-2.498-.128-2.584-.131" fill="#0A0D0D"></path><path d="M1.31 64.141v3.155H5.9v1.14H1.31v4.59H0V63h6.858v1.141H1.31m6.885 8.886H9.49V63H8.195zm3.407 0h1.295V65.76h-1.295v7.267zm0-8.632h1.295V63h-1.295v1.395zm13.349 3.647v4.985h-1.296v-4.971c0-.845-.45-1.352-1.253-1.352-.845 0-1.774.507-1.774 2.38v3.943h-1.296v-4.971c0-.845-.45-1.352-1.253-1.352-.845 0-1.774.578-1.774 2.45v3.873h-1.296V65.76h1.24l-.057 1.071c.479-.803 1.197-1.254 2.21-1.254.986 0 1.69.437 2.015 1.268.478-.845 1.253-1.268 2.309-1.268 1.422 0 2.225.775 2.225 2.465m1.547 2.689h1.24c.126 1.014.732 1.436 1.844 1.436 1.183 0 1.733-.45 1.733-1.14 0-.577-.381-.901-1.142-1.056l-1.464-.31c-1.408-.296-2.014-.943-2.014-1.971 0-1.267.915-2.099 2.704-2.099 1.648 0 2.774.718 2.957 2.282h-1.28c-.142-.845-.691-1.253-1.72-1.253-.914 0-1.464.31-1.464.957 0 .465.268.789 1.127.972l1.408.31c1.507.337 2.127 1 2.127 2.055 0 1.423-1.113 2.296-3.028 2.296-1.83 0-2.86-.817-3.028-2.479m17.798 1.155v1.14h-6.534V63h1.31v8.886h5.224m6.083-1.408v-1.014l-2.17.324c-1.013.155-1.408.605-1.408 1.253 0 .746.55 1.17 1.394 1.17 1.17 0 2.184-.803 2.184-1.733zm2.154 1.591v.958h-.69c-.774 0-1.197-.353-1.253-1.07-.465.704-1.394 1.253-2.634 1.253-1.479 0-2.436-.775-2.436-2.113 0-1.197.718-2.041 2.478-2.267l1.86-.239c.351-.042.52-.211.52-.55v-.309c0-.76-.506-1.127-1.633-1.127-1.042 0-1.563.325-1.648 1.296h-1.281c.126-1.606 1.155-2.366 3.028-2.366 1.802 0 2.844.732 2.844 2.324v3.577c0 .479.155.633.634.633h.211zm5.73-1.591v-1.014l-2.169.324c-1.014.155-1.408.605-1.408 1.253 0 .746.55 1.17 1.395 1.17 1.168 0 2.182-.803 2.182-1.733zm2.154 1.591v.958h-.69c-.774 0-1.196-.353-1.253-1.07-.464.704-1.394 1.253-2.633 1.253-1.479 0-2.436-.775-2.436-2.113 0-1.197.718-2.041 2.478-2.267l1.86-.239c.351-.042.52-.211.52-.55v-.309c0-.76-.507-1.127-1.633-1.127-1.043 0-1.563.325-1.648 1.296H53.7c.127-1.606 1.156-2.366 3.028-2.366 1.803 0 2.845.732 2.845 2.324v3.577c0 .479.154.633.633.633h.211zm6.013.958l-2.028-2.972-2.056 2.972h-1.577l2.985-3.859-2.633-3.408h1.577l1.704 2.493 1.675-2.493h1.577l-2.604 3.408 2.957 3.859h-1.578m7.954-8.886v3.155h4.591v1.14h-4.59v4.59h-1.31V63h6.858v1.141h-5.549m10.576 6.337v-1.014l-2.17.324c-1.013.155-1.407.605-1.407 1.253 0 .746.548 1.17 1.394 1.17 1.168 0 2.183-.803 2.183-1.733zm2.154 1.591v.958h-.69c-.774 0-1.197-.353-1.253-1.07-.465.704-1.395 1.253-2.634 1.253-1.479 0-2.436-.775-2.436-2.113 0-1.197.718-2.041 2.479-2.267l1.858-.239c.352-.042.522-.211.522-.55v-.309c0-.76-.507-1.127-1.634-1.127-1.042 0-1.563.325-1.648 1.296h-1.28c.125-1.606 1.154-2.366 3.026-2.366 1.803 0 2.845.732 2.845 2.324v3.577c0 .479.155.633.634.633h.211zm1.267.958h1.295V63H88.38zm4.294-4.253h4.224c-.169-1.38-.915-2.126-2.098-2.126-1.155 0-2 .704-2.126 2.126zm5.435.93h-5.45c.043 1.633.888 2.435 2.197 2.435 1.07 0 1.69-.535 2.014-1.45l1.182.14c-.45 1.508-1.647 2.367-3.239 2.367-2.167 0-3.45-1.592-3.45-3.83 0-2.225 1.255-3.775 3.422-3.775 2.043 0 3.324 1.366 3.324 3.634v.478zm5.533-4.127v1.268c-.155-.014-.296-.014-.464-.014-.958 0-2.029.746-2.085 2.225v3.97h-1.295V65.76h1.21v1.465c.466-1.014 1.226-1.662 2.366-1.662.1 0 .183 0 .268.014m5.59 4.901v-1.014l-2.169.324c-1.014.155-1.408.605-1.408 1.253 0 .746.55 1.17 1.395 1.17 1.168 0 2.182-.803 2.182-1.733zm2.154 1.591v.958h-.69c-.774 0-1.196-.353-1.253-1.07-.465.704-1.394 1.253-2.633 1.253-1.479 0-2.436-.775-2.436-2.113 0-1.197.718-2.041 2.478-2.267l1.858-.239c.353-.042.522-.211.522-.55v-.309c0-.76-.507-1.127-1.634-1.127-1.042 0-1.563.325-1.647 1.296h-1.282c.127-1.606 1.154-2.366 3.028-2.366 1.803 0 2.844.732 2.844 2.324v3.577c0 .479.155.633.634.633h.211z" fill="#FFFFFE"></path></g></svg>