<svg data-name="Group 53" xmlns="http://www.w3.org/2000/svg" width="1368.145" height="315.646"><defs><clipPath id="a"><path data-name="Rectangle 92" fill="none" stroke="#a5cfc3" d="M0 0h1368.145v315.646H0z"/></clipPath></defs><path data-name="Line 45" fill="none" stroke="#a5cfc3" stroke-miterlimit="10" stroke-width=".75" d="m290.482 150.593-28.749-83.061"/><g data-name="Group 46"><g data-name="Group 45" clip-path="url(#a)" fill="none" stroke="#a5cfc3" stroke-miterlimit="10" stroke-width=".75"><path data-name="Path 132" d="m457.391 128.687 33.54-52.026 42.331-44.57 45.517 45.48 37.083 30.123 19.8-35.6 22.558 32.859 23.223-37.422 37.692 37.422 18.739 3.652 38.959-18.634 5.589 11.332 29.55-44.724 33.54 41.987 11.981-8.595 16.77 20.459 26.352-52.026 32.747 43.813 27.153-31.035 17.566-61.153 36.281-9.128 11.631 18.256 91.841 85.8 45.528 65.714 39.132-28.418 46.32-15.517 11.979-8.214 47.118 39.247 17.568-12.656 41.88 12.45"/><path data-name="Path 133" d="m1088.488 279.961-10.609-64.753-64.86-33.775-52.508-110.25L1014.366.901"/></g></g><path data-name="Path 134" d="m1284.667 201.68-50.223 11.763-59.687 25.406" fill="none" stroke="#a5cfc3" stroke-miterlimit="10" stroke-width=".75"/><path data-name="Path 135" d="m1151.293 291.542 23.463-52.695-11.4-68.174 71.09 42.769 14.363-86.7" fill="none" stroke="#a5cfc3" stroke-miterlimit="10" stroke-width=".75"/><path data-name="Line 46" fill="none" stroke="#a5cfc3" stroke-miterlimit="10" stroke-width=".75" d="m1248.809 126.738 35.859 74.941"/><path data-name="Path 136" d="m1312.497 286.271 5.514-76.594-10.106-51.9-23.237 43.906" fill="none" stroke="#a5cfc3" stroke-miterlimit="10" stroke-width=".75"/><path data-name="Path 137" d="m1202.49 142.252 31.956 71.187-15.978 86.1" fill="none" stroke="#a5cfc3" stroke-miterlimit="10" stroke-width=".75"/><path data-name="Line 47" fill="none" stroke="#a5cfc3" stroke-miterlimit="10" stroke-width=".75" d="m1284.668 201.679-20.028 84.593"/><path data-name="Path 138" d="m490.932 76.659 39.93 66.176 32.344 53.4-14.114 77.2" fill="none" stroke="#a5cfc3" stroke-miterlimit="10" stroke-width=".75"/><path data-name="Path 139" d="m533.258 32.09 24.557 76.973 20.964-31.491 28.749 69.825 1.6 106.793-2.966 25.77" fill="none" stroke="#a5cfc3" stroke-miterlimit="10" stroke-width=".75"/><path data-name="Path 140" d="m563.206 196.23 44.323-48.831 50.69 4.563 19.588-4.563" fill="none" stroke="#a5cfc3" stroke-miterlimit="10" stroke-width=".75"/><path data-name="Path 141" d="m658.219 104.956 19.586 42.444 28.751 34.913-2.057 62.155" fill="none" stroke="#a5cfc3" stroke-miterlimit="10" stroke-width=".75"/><path data-name="Path 142" d="m615.859 107.694 42.36 44.269 48.337 30.35-97.43 71.875-45.92-57.959" fill="none" stroke="#a5cfc3" stroke-miterlimit="10" stroke-width=".75"/><path data-name="Path 143" d="M748.881 238.848V154.7l-29.746-49.744-41.329 42.443" fill="none" stroke="#a5cfc3" stroke-miterlimit="10" stroke-width=".75"/><path data-name="Path 144" d="m737.876 108.607 11.007 46.093-42.327 27.612" fill="none" stroke="#a5cfc3" stroke-miterlimit="10" stroke-width=".75"/><path data-name="Path 145" d="m793.288 220.899 5.107-37.217-15.972-82.378 46.722 40.952 31.144 10.163 13.975-41.987" fill="none" stroke="#a5cfc3" stroke-miterlimit="10" stroke-width=".75"/><path data-name="Path 146" d="m845.512 98.566-16.372 43.688 23.958 60.363-7.785 41.847" fill="none" stroke="#a5cfc3" stroke-miterlimit="10" stroke-width=".75"/><path data-name="Path 147" d="m960.512 71.183 57.312 25.557-4.8 84.693-79.665-79.215 11.283 76.408 5.487 51.834-7.785 49.5" fill="none" stroke="#a5cfc3" stroke-miterlimit="10" stroke-width=".75"/><path data-name="Path 148" d="m1017.825 96.74 100.013 8.214-39.957 110.252-60.056-118.466 8.172-77.585" fill="none" stroke="#a5cfc3" stroke-miterlimit="10" stroke-width=".75"/><g data-name="Group 48"><g data-name="Group 47" clip-path="url(#a)" fill="none" stroke="#a5cfc3" stroke-miterlimit="10" stroke-width=".75"><path data-name="Line 48" d="M1367.356 157.566v74.66"/><path data-name="Path 149" d="m1367.355 157.566-49.345 52.112-33.343-8"/></g></g><path data-name="Path 150" d="m857.492 89.972 2.795 62.447 39.132 64.787v31.508" fill="none" stroke="#a5cfc3" stroke-miterlimit="10" stroke-width=".75"/><path data-name="Line 49" fill="none" stroke="#a5cfc3" stroke-miterlimit="10" stroke-width=".75" d="m933.359 102.217-73.072 50.202"/><path data-name="Path 151" d="m1077.88 215.207-127.751 15.254-50.71-13.253 45.224-38.581 68.378 2.809" fill="none" stroke="#a5cfc3" stroke-miterlimit="10" stroke-width=".75"/><path data-name="Path 152" d="m449.404 248.715-18.767-44.172 26.753-75.854 73.473 14.147-45.521 35.233" fill="none" stroke="#a5cfc3" stroke-miterlimit="10" stroke-width=".75"/><path data-name="Line 50" fill="none" stroke="#a5cfc3" stroke-miterlimit="10" stroke-width=".75" d="m563.205 196.231-113.8 52.483"/><path data-name="Line 51" fill="none" stroke="#a5cfc3" stroke-miterlimit="10" stroke-width=".75" d="m309.649 92.176-19.167 58.416"/><path data-name="Path 153" d="m334.406 279.961 17.968-35.355-13.177-62.3 11.185-60.921 80.26 83.157-13.182-84.071" fill="none" stroke="#a5cfc3" stroke-miterlimit="10" stroke-width=".75"/><path data-name="Path 154" d="m217.887 299.071-8.862-66.331 40.328-107.7-29.149-75.76-60.691 89.904-89.845 52.711 139.357 40.845" fill="none" stroke="#a5cfc3" stroke-miterlimit="10" stroke-width=".75"/><path data-name="Path 155" d="m288.018 277.01-3.524-56.135 5.99-70.282" fill="none" stroke="#a5cfc3" stroke-miterlimit="10" stroke-width=".75"/><g data-name="Group 50"><g data-name="Group 49" clip-path="url(#a)" fill="none" stroke="#a5cfc3" stroke-miterlimit="10" stroke-width=".75"><path data-name="Path 156" d="M159.51 139.184 90.031 93.09l-20.363 98.8 32.342 122.79L1.506 299.071v-66.844"/><path data-name="Path 157" d="M1.503 157.567v74.66l68.162-40.332-68.162-34.328L90.032 93.09l130.173-43.812 41.528 18.255 38.332 5.476 9.584 19.167 6.388-2.738 34.341 31.946 35.139-35.6 31.944 34.686 7.188-10.955 32.737 19.172"/></g></g><path data-name="Line 52" fill="none" stroke="#a5cfc3" stroke-miterlimit="10" stroke-width=".75" d="M658.219 151.962 609.126 254.19"/><path data-name="Path 158" d="m933.36 104.955-33.941 112.25-46.319-14.58-54.7-18.941-49.514-28.98 27.951-64.728" fill="none" stroke="#a5cfc3" stroke-miterlimit="10" stroke-width=".75"/><path data-name="Line 53" fill="none" stroke="#a5cfc3" stroke-miterlimit="10" stroke-width=".75" d="m950.13 230.459 49.854 55.812"/><path data-name="Path 159" d="m249.354 125.036-89.843 14.147 49.512 93.559 81.458-82.15-41.127-25.556" fill="none" stroke="#a5cfc3" stroke-miterlimit="10" stroke-width=".75"/><path data-name="Path 160" d="m316.038 89.438 23.16 92.874 91.441 22.23 54.7-26.474 77.863 18.163" fill="none" stroke="#a5cfc3" stroke-miterlimit="10" stroke-width=".75"/><path data-name="Path 161" d="m339.198 182.312-54.7 38.564-75.473 11.866" fill="none" stroke="#a5cfc3" stroke-miterlimit="10" stroke-width=".75"/><path data-name="Path 162" d="m284.494 220.876 67.881 23.732 97.03 4.108 17.091 57.5" fill="none" stroke="#a5cfc3" stroke-miterlimit="10" stroke-width=".75"/><g data-name="Group 52"><g data-name="Group 51" clip-path="url(#a)"><path data-name="Path 163" d="m102.012 314.686 115.876-15.614 70.13-22.062 46.389 2.952 132.09 26.256 82.6-32.784 57.069 6.528 98.34-35.495 44.382-5.619 44.4-17.95 52.026 23.568 54.107 4.249 42.924 31.246 57.641 6.31 88.506-6.31 62.8 11.581 67.175 8 46.173-13.27h47.857l54.861 12.8v-66.844l-54.859 54.044" fill="none" stroke="#a5cfc3" stroke-miterlimit="10" stroke-width=".75"/></g></g><path data-name="Line 54" fill="none" stroke="#a5cfc3" stroke-miterlimit="10" stroke-width=".75" d="m1117.837 107.078 33.454 184.466"/><path data-name="Path 164" d="m530.863 142.835 26.8-33.151 49.865 37.714" fill="none" stroke="#a5cfc3" stroke-miterlimit="10" stroke-width=".75"/></svg>