<?xml version="1.0" encoding="utf-8"?>
<!-- Generator: Adobe Illustrator 27.0.1, SVG Export Plug-In . SVG Version: 6.00 Build 0)  -->
<svg version="1.1" id="Layer_1" xmlns="http://www.w3.org/2000/svg" xmlns:xlink="http://www.w3.org/1999/xlink" x="0px" y="0px"
	 width="470.3px" height="250.5px" viewBox="0 0 470.3 250.5" style="enable-background:new 0 0 470.3 250.5;" xml:space="preserve"
	>
<g>
	<g>
		<g>
			<g>
				<path style="fill:#FFFFFF;" d="M20.3,188.3C10,187,7.1,185.8,7.1,181.9c0-4.5,3.7-7.7,12.1-7.7c8.3,0,12.5,3.3,14.2,7.2l5.6-3.2
					c-2.8-5.7-9.3-10.3-19.4-10.3c-11.4,0-19,5.8-19,14.4c0,9.8,9.8,11.2,19,12.3c12.3,1.6,14.8,2.4,14.8,6c0,5.1-5,8.3-13.3,8.3
					c-7.7,0-13.3-1.8-17.5-5.9L0,208.4c5.8,4.9,13.1,6.7,20.9,6.7c11.2,0,20-5.1,20-14.6C40.8,190.2,30.5,189.5,20.3,188.3z"/>
			</g>
			<g>
				<path style="fill:#FFFFFF;" d="M75.6,168.5H57.2h-6.6v45.9h6.6v-16.4h18.4c8.3,0,15.1-6.4,15.1-14.8
					C90.7,175,83.9,168.5,75.6,168.5z M75.3,191.8H57.2v-16.9h18.1c4.9,0,8.8,3.6,8.8,8.5C84.1,188.2,80.2,191.8,75.3,191.8z"/>
			</g>
			<g>
				<path style="fill:#FFFFFF;" d="M111.6,168.5L90.7,214v0.5h6.8l4.5-10.1h25.2l4.5,10.1h6.8V214l-20.9-45.4H111.6z M104.9,198.1
					l9.7-21.7l9.8,21.7H104.9z"/>
			</g>
		</g>
		<g>
			<g>
				<path style="fill:#FFFFFF;" d="M180.9,168.5l-19.8,45.3v0.6h11.3l3.2-8h21.5l3.3,8h11.3v-0.6l-19.8-45.3H180.9z M179.4,197.4
					l7.1-17.3l7,17.3H179.4z"/>
			</g>
			<g>
				<path style="fill:#FFFFFF;" d="M258.6,183.8c0-9.1-7-15.2-16.1-15.2h-14.1H218v45.9h10.5v-15.6h11.3l10.4,15.6h11.1V214
					L250,197.4C255.2,195.1,258.6,190.1,258.6,183.8z M241.3,189.9h-12.9v-12h12.9c3.9,0,6.8,2.3,6.8,6
					C248.1,187.6,245.3,189.9,241.3,189.9z"/>
			</g>
			<g>
				<path style="fill:#FFFFFF;" d="M289.5,167.7c-15,0-24.6,10.8-24.6,23.8c0,13.1,9.6,23.8,24.6,23.8c15,0,24.6-10.8,24.6-23.8
					C314.1,178.5,304.5,167.7,289.5,167.7z M289.5,205.5c-8.7,0-14-6.1-14-14c0-7.9,5.3-14,14-14c8.6,0,14,6,14,14
					C303.5,199.4,298.1,205.5,289.5,205.5z"/>
			</g>
			<g>
				<path style="fill:#FFFFFF;" d="M353.1,196.1c0,6.4-4.1,9.4-10.4,9.4c-6.4,0-10.6-3-10.6-9.4v-27.6h-10.5v27.6
					c0,12.9,8.9,19.2,21,19.2c12.1,0,21-6.3,21-19.2v-27.6h-10.5V196.1z"/>
			</g>
			<g>
				<polygon style="fill:#FFFFFF;" points="405.7,197.1 382.7,168.5 373.5,168.5 373.5,214.5 384,214.5 384,185.9 407,214.5 
					416.2,214.5 416.2,168.5 405.7,168.5 				"/>
			</g>
			<g>
				<path style="fill:#FFFFFF;" d="M446.3,168.5h-8.9H427v45.9h0.7h18.7c13.7,0,24-9.9,24-23C470.3,178.5,460,168.5,446.3,168.5z
					 M446.3,204.8h-8.9v-26.5h8.9c7.9,0,13.5,5.4,13.5,13.3C459.8,199.3,454.2,204.8,446.3,204.8z"/>
			</g>
		</g>
	</g>
	<g>
		<g>
			<path style="fill:#FFFFFF;" d="M251.1,48.2l-1.2-1.2l-1.2,1.2l-20.8,20.8l-17.3-17.3l-1.2-1.2l-1.2,1.2l-38.4,38.4l-0.8,0.8
				l0.4,1c1.1,3.3,2.5,6.5,4,9.4l1.1,2.1l1.7-1.7l33.2-33.2l9.5,9.5l-35.4,35.4l-1.2,1.2l1.1,1.2c2.2,2.5,4.4,4.7,6.8,6.7l1.2,1
				l1.1-1.1L250,64.9l41.7,41.7l1.5,1.5l1.2-1.8c1.8-3,3.3-5.8,4.6-8.6l0.5-1.1l-0.8-0.8L251.1,48.2z"/>
		</g>
		<g>
			<path style="fill:#FFFFFF;" d="M235.2,0c-17.6,0-34.4,6.6-47.3,18.6c-12.9,11.9-20.8,28.2-22.1,45.6l-0.4,4.7l3.3-3.3L180.3,54
				l0.3-0.3l0.1-0.4c7.2-23.9,29.6-40.5,54.5-40.5c28.9,0,53.1,21.6,56.5,50.2l0.1,0.6l0.4,0.4l9.6,9.6l2.8,2.8l0.2-3.9
				c0-0.9,0.1-1.9,0.1-2.8C304.9,31.2,273.6,0,235.2,0z"/>
		</g>
		<g>
			<path style="fill:#FFFFFF;" d="M273.5,113.7l-1.1-1.1l-1.2,1c-10.1,8.3-22.9,12.9-36,12.9c-1.2,0-2.3,0-3.3-0.1l-0.2,0l-0.2,0
				c0,0,0,0,0,0c-0.1,0-0.2,0-0.3,0l-0.1,0l-0.1,0l-0.1,0c-0.8,0-1.6-0.1-2.3-0.2l-0.1,0l-0.1,0c-0.3,0-0.5-0.1-0.9-0.1l-0.1,0
				l-0.1,0c-0.9-0.1-1.9-0.2-2.9-0.4c-0.2,0-0.4-0.1-0.5-0.1c-1-0.2-2-0.4-3-0.7c-0.1,0-0.2-0.1-0.4-0.1c-0.1,0-0.2,0-0.2-0.1
				l-0.1,0l-0.1,0c-0.6-0.2-1.5-0.4-2.4-0.7l-1-0.3l-0.7,0.7l-7.2,7.2l-1.9,1.9l2.4,1c8.2,3.3,16.8,4.9,25.7,4.9
				c16.3,0,32.2-5.8,44.8-16.4l1.4-1.2l-1.3-1.3L273.5,113.7z"/>
		</g>
	</g>
	<g>
		<g>
			<path style="fill:#FFFFFF;" d="M28.6,235.2v5.6h7.2v2.4h-7.2v7h-2.5v-17.4h2.5h11v2.4H28.6z"/>
			<path style="fill:#FFFFFF;" d="M61.2,247.8v2.4H49h-1v-17.4h2.5v15H61.2z"/>
			<path style="fill:#FFFFFF;" d="M72.1,232.8v17.4h-2.5v-17.4H72.1z"/>
			<path style="fill:#FFFFFF;" d="M100,232.8v17.4h-2.5V237l-6.3,8.4h-0.3l-6.3-8.4v13.2h-2.5v-17.4h2.2l6.7,9l6.7-9H100z"/>
			<path style="fill:#FFFFFF;" d="M108.7,247.9l1.4-2.1c1.6,1.5,3.7,2.2,6.6,2.2c3.1,0,5-1.2,5-3.1c0-1.4-0.9-1.7-5.6-2.3
				c-3.5-0.4-7.2-0.9-7.2-4.7c0-3.3,2.9-5.5,7.2-5.5c3.8,0,6.3,1.7,7.4,3.9l-2.1,1.2c-0.6-1.5-2.2-2.7-5.4-2.7
				c-3.2,0-4.6,1.2-4.6,2.9c0,1.5,1.1,1.9,5,2.4c3.9,0.5,7.8,0.7,7.8,4.6c0,3.6-3.3,5.5-7.6,5.5
				C113.7,250.5,110.9,249.8,108.7,247.9z"/>
			<path style="fill:#FFFFFF;" d="M155.3,240.4v2.2h-10v-2.2H155.3z"/>
			<path style="fill:#FFFFFF;" d="M190.9,247.8v2.4h-12.2h-1v-17.4h2.5v15H190.9z"/>
			<path style="fill:#FFFFFF;" d="M215.5,250v0.2h-2.6l-1.7-3.8h-9.6l-1.7,3.8h-2.6V250l7.9-17.2h2.3L215.5,250z M210.1,244
				l-3.7-8.2l-3.7,8.2H210.1z"/>
			<path style="fill:#FFFFFF;" d="M239.7,250v0.2h-2.6l-1.7-3.8h-9.6l-1.7,3.8h-2.6V250l7.9-17.2h2.3L239.7,250z M234.3,244
				l-3.7-8.2l-3.7,8.2H234.3z"/>
			<path style="fill:#FFFFFF;" d="M262.8,250v0.2h-2.7l-5.6-7.3l-5.6,7.3h-2.7V250l6.9-9l-6.1-8v-0.2h2.7l4.8,6.3l4.8-6.3h2.7v0.2
				l-6.1,8L262.8,250z"/>
			<path style="fill:#FFFFFF;" d="M293.6,240.4v2.2h-10v-2.2H293.6z"/>
			<path style="fill:#FFFFFF;" d="M318.5,235.2v5.6h7.2v2.4h-7.2v7H316v-17.4h2.5h11v2.4H318.5z"/>
			<path style="fill:#FFFFFF;" d="M351.9,250v0.2h-2.6l-1.7-3.8H338l-1.7,3.8h-2.6V250l7.9-17.2h2.3L351.9,250z M346.5,244l-3.7-8.2
				l-3.7,8.2H346.5z"/>
			<path style="fill:#FFFFFF;" d="M373,247.8v2.4h-12.2h-1v-17.4h2.5v15H373z"/>
			<path style="fill:#FFFFFF;" d="M395.2,247.8v2.4h-13.7v-7.5v-7.5v-2.4H395v2.4H384v5.1h7v2.4h-7v5.2H395.2z"/>
			<path style="fill:#FFFFFF;" d="M419.8,250.1v0.1h-2.7l-4.6-6.8h-6.1v6.8h-2.5v-9.1v-8.3h9.2c3.2,0,5.7,2.2,5.7,5.4
				c0,2.4-1.5,4.3-3.7,5L419.8,250.1z M406.4,241.1h6.6c1.8,0,3.3-1.1,3.3-3s-1.5-3-3.3-3h-6.6V241.1z"/>
			<path style="fill:#FFFFFF;" d="M444.2,250v0.2h-2.6l-1.7-3.8h-9.6l-1.7,3.8H426V250l7.9-17.2h2.3L444.2,250z M438.8,244l-3.7-8.2
				l-3.7,8.2H438.8z"/>
		</g>
	</g>
</g>
</svg>
