<?xml version="1.0" encoding="utf-8"?>
<!-- Generator: Adobe Illustrator 27.0.0, SVG Export Plug-In . SVG Version: 6.00 Build 0)  -->
<svg version="1.1" id="Layer_1" xmlns="http://www.w3.org/2000/svg" xmlns:xlink="http://www.w3.org/1999/xlink" x="0px" y="0px"
	 width="721.3px" height="156.5px" viewBox="0 0 721.3 156.5" style="enable-background:new 0 0 721.3 156.5;" xml:space="preserve"
	>
<g>
	<g>
		<path style="fill:#068C66;" d="M96.2,54.2l-1.4-1.4l-1.4,1.4L70.1,77.6L50.7,58.2l-1.4-1.4l-1.4,1.4L4.8,101.3l-0.9,0.9l0.4,1.2
			c1.3,3.7,2.8,7.3,4.5,10.6l1.2,2.4l1.9-1.9L49.3,77L60,87.7l-39.8,39.8l-1.3,1.3l1.2,1.4c2.4,2.8,5,5.3,7.6,7.5l1.4,1.2l1.3-1.3
			L95,72.9l46.8,46.8l1.7,1.7l1.3-2.1c2.1-3.3,3.8-6.5,5.1-9.6l0.5-1.2l-0.9-0.9L96.2,54.2z"/>
		<path style="fill:#068C66;" d="M78.4,0C58.7,0,39.8,7.4,25.3,20.8C10.8,34.3,1.9,52.5,0.4,72.1L0,77.4l3.7-3.7l13-13l0.3-0.3
			l0.1-0.5C25.3,33,50.5,14.3,78.4,14.3c32.4,0,59.7,24.3,63.5,56.4l0.1,0.7l0.5,0.5l10.8,10.8l3.1,3.1l0.2-4.4c0-1,0.1-2.1,0.1-3.2
			C156.7,35.1,121.6,0,78.4,0z"/>
		<path style="fill:#068C66;" d="M121.5,127.8l-1.3-1.3l-1.4,1.1c-11.4,9.4-25.7,14.5-40.4,14.5c-1.3,0-2.5,0-3.7-0.2l-0.2,0l-0.2,0
			c0,0,0,0,0,0c-0.1,0-0.2,0-0.3,0l-0.1,0l-0.1,0l-0.1,0c-0.9,0-1.7-0.1-2.6-0.2l-0.1,0l-0.1,0c-0.3,0-0.6-0.1-1-0.1l-0.1,0l-0.1,0
			c-1-0.1-2.1-0.3-3.2-0.5c-0.2-0.1-0.4-0.1-0.6-0.1c-1.1-0.2-2.2-0.4-3.3-0.7c-0.2-0.1-0.3-0.1-0.4-0.1c-0.1,0-0.2,0-0.3-0.1
			l-0.1,0l-0.1,0c-0.7-0.2-1.7-0.4-2.7-0.8l-1.1-0.4l-0.8,0.8l-8.1,8.1l-2.1,2.1l2.7,1.1c9.2,3.7,18.9,5.5,28.8,5.5
			c18.4,0,36.2-6.6,50.3-18.5l1.6-1.4l-1.5-1.5L121.5,127.8z"/>
	</g>
	<g>
		<g>
			<g>
				<path style="fill:#068C66;" d="M220.3,60.3c-11.5-1.5-14.7-2.8-14.7-7.1c0-5,4.2-8.6,13.4-8.6c9.3,0,14,3.7,15.8,8l6.2-3.6
					c-3.1-6.4-10.4-11.5-21.6-11.5c-12.6,0-21.1,6.4-21.1,16c0,11,11,12.4,21.2,13.7c13.7,1.8,16.4,2.6,16.4,6.6
					c0,5.6-5.6,9.2-14.8,9.2c-8.5,0-14.8-2-19.4-6.6l-4,6.1c6.5,5.5,14.5,7.5,23.2,7.5c12.5,0,22.2-5.7,22.2-16.3
					C243.1,62.5,231.6,61.7,220.3,60.3z"/>
				<path style="fill:#068C66;" d="M281.9,38.3h-20.5h-7.3v51.2h7.3V71.2h20.5c9.3,0,16.8-7.2,16.8-16.4
					C298.7,45.5,291.1,38.3,281.9,38.3z M281.6,64.2h-20.2V45.4h20.2c5.4,0,9.8,4,9.8,9.4C291.4,60.2,287,64.2,281.6,64.2z"/>
				<path style="fill:#068C66;" d="M322,38.3l-23.3,50.6v0.6h7.6l5-11.3h28.1l5,11.3h7.6v-0.6l-23.3-50.6H322z M314.5,71.2
					l10.8-24.1l10.9,24.1H314.5z"/>
			</g>
			<g>
				<path style="fill:#068C66;" d="M399.1,38.3l-22,50.5v0.7h12.6l3.6-8.9h23.9l3.7,8.9h12.6v-0.7l-22.1-50.5H399.1z M397.4,70.5
					l7.9-19.2l7.8,19.2H397.4z"/>
				<path style="fill:#068C66;" d="M485.7,55.3c0-10.1-7.7-17-17.9-17H452h-11.7v51.2H452V72.2h12.6l11.6,17.3h12.3v-0.6L476,70.5
					C481.8,67.9,485.7,62.4,485.7,55.3z M466.4,62.2H452V48.8h14.3c4.4,0,7.6,2.6,7.6,6.6C474,59.6,470.8,62.2,466.4,62.2z"/>
				<path style="fill:#068C66;" d="M520,37.4c-16.7,0-27.4,12-27.4,26.5c0,14.5,10.7,26.5,27.4,26.5c16.7,0,27.4-12,27.4-26.5
					C547.4,49.4,536.7,37.4,520,37.4z M520,79.5c-9.6,0-15.6-6.8-15.6-15.6c0-8.8,5.9-15.6,15.6-15.6c9.6,0,15.6,6.7,15.6,15.6
					C535.6,72.7,529.6,79.5,520,79.5z"/>
				<path style="fill:#068C66;" d="M590.9,69c0,7.1-4.6,10.4-11.6,10.4c-7.1,0-11.8-3.4-11.8-10.4V38.3h-11.7V69
					c0,14.4,9.9,21.4,23.4,21.4c13.4,0,23.4-7,23.4-21.4V38.3h-11.7V69z"/>
				<polygon style="fill:#068C66;" points="649.3,70.1 623.8,38.3 613.5,38.3 613.5,89.5 625.2,89.5 625.2,57.7 650.8,89.5 
					661,89.5 661,38.3 649.3,38.3 				"/>
				<path style="fill:#068C66;" d="M694.7,38.3h-9.9h-11.7v51.2h0.7h20.8c15.2,0,26.7-11,26.7-25.6
					C721.3,49.4,709.8,38.3,694.7,38.3z M694.7,78.7h-9.9V49.2h9.9c8.8,0,15,6.1,15,14.8C709.6,72.6,703.4,78.7,694.7,78.7z"/>
			</g>
		</g>
		<g>
			<g>
				<path style="fill:#068C66;" d="M200.2,115.1v5.6h7.2v2.4h-7.2v7h-2.5v-17.4h2.5h11v2.4H200.2z"/>
				<path style="fill:#068C66;" d="M232.8,127.7v2.4h-12.2h-1v-17.4h2.5v15H232.8z"/>
				<path style="fill:#068C66;" d="M243.7,112.7v17.4h-2.5v-17.4H243.7z"/>
				<path style="fill:#068C66;" d="M271.6,112.7v17.4h-2.5v-13.2l-6.3,8.4h-0.3l-6.3-8.4v13.2h-2.5v-17.4h2.2l6.7,9l6.7-9H271.6z"/>
				<path style="fill:#068C66;" d="M280.3,127.8l1.4-2.1c1.6,1.5,3.7,2.2,6.6,2.2c3.1,0,5-1.2,5-3.1c0-1.4-0.9-1.7-5.6-2.3
					c-3.5-0.4-7.2-0.9-7.2-4.7c0-3.3,2.9-5.5,7.2-5.5c3.8,0,6.3,1.7,7.4,3.9l-2.1,1.2c-0.6-1.5-2.2-2.7-5.4-2.7s-4.6,1.2-4.6,2.9
					c0,1.5,1.1,1.9,5,2.4c3.9,0.5,7.8,0.7,7.8,4.6c0,3.6-3.3,5.5-7.6,5.5C285.2,130.3,282.5,129.7,280.3,127.8z"/>
				<path style="fill:#068C66;" d="M326.9,120.3v2.2h-10v-2.2H326.9z"/>
				<path style="fill:#068C66;" d="M362.5,127.7v2.4h-12.2h-1v-17.4h2.5v15H362.5z"/>
				<path style="fill:#068C66;" d="M387.1,129.9v0.2h-2.6l-1.7-3.8h-9.6l-1.7,3.8h-2.6v-0.2l7.9-17.2h2.3L387.1,129.9z M381.7,123.9
					l-3.7-8.2l-3.7,8.2H381.7z"/>
				<path style="fill:#068C66;" d="M411.2,129.9v0.2h-2.6l-1.7-3.8h-9.6l-1.7,3.8h-2.6v-0.2l7.9-17.2h2.3L411.2,129.9z M405.8,123.9
					l-3.7-8.2l-3.7,8.2H405.8z"/>
				<path style="fill:#068C66;" d="M434.4,129.9v0.2h-2.7l-5.6-7.3l-5.6,7.3h-2.7v-0.2l6.9-9l-6.1-8v-0.2h2.7l4.8,6.3l4.8-6.3h2.7
					v0.2l-6.1,8L434.4,129.9z"/>
				<path style="fill:#068C66;" d="M465.2,120.3v2.2h-10v-2.2H465.2z"/>
				<path style="fill:#068C66;" d="M490.1,115.1v5.6h7.2v2.4h-7.2v7h-2.5v-17.4h2.5h11v2.4H490.1z"/>
				<path style="fill:#068C66;" d="M523.4,129.9v0.2h-2.6l-1.7-3.8h-9.6l-1.7,3.8h-2.6v-0.2l7.9-17.2h2.3L523.4,129.9z M518.1,123.9
					l-3.7-8.2l-3.7,8.2H518.1z"/>
				<path style="fill:#068C66;" d="M544.6,127.7v2.4h-12.2h-1v-17.4h2.5v15H544.6z"/>
				<path style="fill:#068C66;" d="M566.7,127.7v2.4H553v-7.5v-7.5v-2.4h13.6v2.4h-11.1v5.1h7v2.4h-7v5.2H566.7z"/>
				<path style="fill:#068C66;" d="M591.4,129.9v0.1h-2.7l-4.6-6.8h-6.1v6.8h-2.5V121v-8.3h9.2c3.2,0,5.7,2.2,5.7,5.4
					c0,2.4-1.5,4.3-3.7,5L591.4,129.9z M577.9,121h6.6c1.8,0,3.3-1.1,3.3-3s-1.5-3-3.3-3h-6.6V121z"/>
				<path style="fill:#068C66;" d="M615.8,129.9v0.2h-2.6l-1.7-3.8h-9.6l-1.7,3.8h-2.6v-0.2l7.9-17.2h2.3L615.8,129.9z M610.4,123.9
					l-3.7-8.2l-3.7,8.2H610.4z"/>
			</g>
		</g>
	</g>
</g>
</svg>
